<?xml version="1.0" encoding="utf-8"?>
<!-- Generator: Adobe Illustrator 17.0.0, SVG Export Plug-In . SVG Version: 6.00 Build 0)  -->
<!DOCTYPE svg PUBLIC "-//W3C//DTD SVG 1.1//EN" "http://www.w3.org/Graphics/SVG/1.1/DTD/svg11.dtd">
<svg version="1.1" id="Layer_2" xmlns="http://www.w3.org/2000/svg" xmlns:xlink="http://www.w3.org/1999/xlink" x="0px" y="0px"
	 width="82.667px" height="20.667px" viewBox="0 0 82.667 20.667" enable-background="new 0 0 82.667 20.667" xml:space="preserve">
<circle fill="none" stroke="#269DD8" stroke-miterlimit="10" cx="9.142" cy="9.696" r="8.142"/>
<g>
	<path fill="#269DD8" d="M10.507,13.124c0,0.143-0.337,0.478-1.011,1.005c-0.674,0.527-1.284,0.791-1.829,0.791
		c-0.375,0-0.648-0.096-0.818-0.288c-0.17-0.192-0.254-0.409-0.254-0.65c0-0.151,0.022-0.292,0.067-0.422
		c0.044-0.13,0.094-0.261,0.147-0.396l1.273-2.639c0.071-0.151,0.123-0.274,0.154-0.368c0.031-0.094,0.047-0.176,0.047-0.248
		S8.27,9.786,8.243,9.755C8.216,9.724,8.18,9.708,8.135,9.708c-0.116,0-0.342,0.177-0.676,0.529
		c-0.335,0.353-0.534,0.529-0.596,0.529c-0.071,0-0.143-0.049-0.214-0.147c-0.071-0.098-0.107-0.161-0.107-0.188
		c0-0.089,0.085-0.234,0.255-0.435c0.17-0.201,0.384-0.413,0.643-0.637C7.671,9.154,7.95,8.962,8.276,8.783
		C8.602,8.605,8.89,8.515,9.14,8.515c0.402,0,0.703,0.114,0.904,0.342c0.201,0.227,0.301,0.502,0.301,0.824
		c0,0.134-0.013,0.277-0.04,0.429c-0.027,0.152-0.085,0.308-0.174,0.469l-1.018,2.237c-0.081,0.188-0.138,0.34-0.174,0.455
		c-0.036,0.116-0.054,0.197-0.054,0.242c0,0.053,0.014,0.087,0.04,0.1c0.027,0.014,0.054,0.02,0.081,0.02
		c0.196,0,0.426-0.14,0.69-0.422c0.264-0.282,0.431-0.422,0.502-0.422c0.063,0,0.13,0.047,0.201,0.14
		C10.471,13.024,10.507,13.088,10.507,13.124z M11.539,6.211c0,0.33-0.118,0.616-0.355,0.857C10.947,7.31,10.659,7.43,10.319,7.43
		c-0.331,0-0.616-0.12-0.857-0.362C9.221,6.827,9.1,6.541,9.1,6.211c0-0.331,0.121-0.616,0.362-0.857
		c0.241-0.242,0.527-0.362,0.857-0.362c0.339,0,0.627,0.12,0.864,0.362C11.42,5.595,11.539,5.881,11.539,6.211z"/>
</g>
<circle fill="none" stroke="#B8DAE6" stroke-miterlimit="10" cx="39.212" cy="9.696" r="8.142"/>
<g>
	<path fill="#B8DAE6" d="M40.577,13.124c0,0.143-0.337,0.478-1.011,1.005c-0.674,0.527-1.284,0.791-1.829,0.791
		c-0.375,0-0.648-0.096-0.818-0.288c-0.17-0.192-0.254-0.409-0.254-0.65c0-0.151,0.022-0.292,0.067-0.422
		c0.044-0.13,0.094-0.261,0.147-0.396l1.273-2.639c0.071-0.151,0.123-0.274,0.154-0.368c0.031-0.094,0.047-0.176,0.047-0.248
		s-0.013-0.123-0.04-0.154c-0.027-0.031-0.062-0.047-0.107-0.047c-0.116,0-0.342,0.177-0.676,0.529
		c-0.335,0.353-0.534,0.529-0.596,0.529c-0.071,0-0.143-0.049-0.214-0.147c-0.071-0.098-0.107-0.161-0.107-0.188
		c0-0.089,0.085-0.234,0.255-0.435c0.17-0.201,0.384-0.413,0.643-0.637c0.232-0.205,0.511-0.398,0.837-0.576
		c0.326-0.179,0.614-0.268,0.864-0.268c0.402,0,0.703,0.114,0.904,0.342c0.201,0.227,0.301,0.502,0.301,0.824
		c0,0.134-0.013,0.277-0.04,0.429c-0.027,0.152-0.085,0.308-0.174,0.469l-1.018,2.237c-0.081,0.188-0.138,0.34-0.174,0.455
		c-0.036,0.116-0.054,0.197-0.054,0.242c0,0.053,0.014,0.087,0.04,0.1c0.027,0.014,0.054,0.02,0.081,0.02
		c0.196,0,0.426-0.14,0.69-0.422c0.264-0.282,0.431-0.422,0.502-0.422c0.063,0,0.13,0.047,0.201,0.14
		C40.542,13.024,40.577,13.088,40.577,13.124z M41.609,6.211c0,0.33-0.118,0.616-0.355,0.857C41.017,7.31,40.729,7.43,40.39,7.43
		c-0.331,0-0.616-0.12-0.857-0.362c-0.241-0.241-0.362-0.527-0.362-0.857c0-0.331,0.121-0.616,0.362-0.857
		c0.241-0.242,0.527-0.362,0.857-0.362c0.339,0,0.627,0.12,0.864,0.362C41.491,5.595,41.609,5.881,41.609,6.211z"/>
</g>
<circle fill="#269DD8" stroke="#269DD8" stroke-miterlimit="10" cx="71.576" cy="9.696" r="8.142"/>
<g>
	<path fill="#FFFFFF" d="M72.941,13.124c0,0.143-0.337,0.478-1.011,1.005c-0.674,0.527-1.284,0.791-1.829,0.791
		c-0.375,0-0.648-0.096-0.818-0.288c-0.169-0.192-0.254-0.409-0.254-0.65c0-0.151,0.022-0.292,0.066-0.422
		c0.044-0.13,0.094-0.261,0.148-0.396l1.272-2.639c0.071-0.151,0.123-0.274,0.154-0.368c0.031-0.094,0.047-0.176,0.047-0.248
		s-0.013-0.123-0.04-0.154c-0.027-0.031-0.062-0.047-0.108-0.047c-0.116,0-0.341,0.177-0.676,0.529
		c-0.335,0.353-0.533,0.529-0.596,0.529c-0.071,0-0.143-0.049-0.214-0.147c-0.071-0.098-0.108-0.161-0.108-0.188
		c0-0.089,0.086-0.234,0.255-0.435c0.17-0.201,0.384-0.413,0.643-0.637c0.232-0.205,0.511-0.398,0.837-0.576
		c0.326-0.179,0.614-0.268,0.864-0.268c0.402,0,0.703,0.114,0.904,0.342c0.201,0.227,0.302,0.502,0.302,0.824
		c0,0.134-0.013,0.277-0.04,0.429c-0.027,0.152-0.085,0.308-0.174,0.469l-1.018,2.237c-0.081,0.188-0.138,0.34-0.174,0.455
		c-0.035,0.116-0.053,0.197-0.053,0.242c0,0.053,0.013,0.087,0.04,0.1c0.026,0.014,0.053,0.02,0.081,0.02
		c0.196,0,0.426-0.14,0.689-0.422c0.264-0.282,0.431-0.422,0.502-0.422c0.063,0,0.13,0.047,0.201,0.14
		C72.905,13.024,72.941,13.088,72.941,13.124z M73.973,6.211c0,0.33-0.119,0.616-0.355,0.857C73.381,7.31,73.092,7.43,72.753,7.43
		c-0.33,0-0.616-0.12-0.857-0.362c-0.241-0.241-0.361-0.527-0.361-0.857c0-0.331,0.121-0.616,0.361-0.857
		c0.242-0.242,0.527-0.362,0.857-0.362c0.339,0,0.628,0.12,0.864,0.362C73.854,5.595,73.973,5.881,73.973,6.211z"/>
</g>
</svg>
