<?xml version="1.0" encoding="utf-8"?>
<!-- Generator: Adobe Illustrator 17.0.0, SVG Export Plug-In . SVG Version: 6.00 Build 0)  -->
<!DOCTYPE svg PUBLIC "-//W3C//DTD SVG 1.1//EN" "http://www.w3.org/Graphics/SVG/1.1/DTD/svg11.dtd">
<svg version="1.1" id="Layer_3" xmlns="http://www.w3.org/2000/svg" xmlns:xlink="http://www.w3.org/1999/xlink" x="0px" y="0px"
	 width="16px" height="16px" viewBox="0 0 16 16" enable-background="new 0 0 16 16" xml:space="preserve">
<path fill="#FFFFFF" d="M8.06,13.52c-3.05,0-5.54-2.45-5.54-5.46C2.52,5.05,5,2.6,8.06,2.6c1.31,0,2.51,0.45,3.46,1.21L8.77,6.15
	L16,7.2L15.99,0l-2.54,2.16c-1.43-1.27-3.32-2.04-5.39-2.04C3.61,0.12,0,3.68,0,8.06C0,12.45,3.61,16,8.06,16
	c3.49,0,6.46-2.19,7.58-5.25l-2.57-0.38C12.18,12.23,10.27,13.52,8.06,13.52z"/>
</svg>
