<?xml version="1.0" encoding="utf-8"?>
<!-- Generator: Adobe Illustrator 17.0.0, SVG Export Plug-In . SVG Version: 6.00 Build 0)  -->
<!DOCTYPE svg PUBLIC "-//W3C//DTD SVG 1.1//EN" "http://www.w3.org/Graphics/SVG/1.1/DTD/svg11.dtd">
<svg version="1.1" xmlns="http://www.w3.org/2000/svg" xmlns:xlink="http://www.w3.org/1999/xlink" x="0px" y="0px" width="16px"
	 height="16px" viewBox="0 0 16 16" enable-background="new 0 0 16 16" xml:space="preserve">
<g id="Layer_1" display="none">
	<g id="Delete" display="inline">
		<polygon points="12.31,0 8,4.31 3.69,0 0,3.69 4.31,8 0,12.31 3.69,16 8,11.69 12.31,16 16,12.31 11.69,8 16,3.69 		"/>
	</g>
</g>
<g id="Layer_2">
	<rect x="2" y="1" fill="#FFFFFF" width="11" height="2"/>
	<g>
		<rect x="6" fill="#FFFFFF" width="3" height="1"/>
	</g>
	<rect x="2" y="4" fill="#FFFFFF" width="2" height="12"/>
	<rect x="11" y="4" fill="#FFFFFF" width="2" height="12"/>
	<rect x="2" y="14" fill="#FFFFFF" width="11" height="2"/>
	<rect x="5" y="5" fill="#FFFFFF" width="1" height="8"/>
	<rect x="7" y="5" fill="#FFFFFF" width="1" height="8"/>
	<rect x="9" y="5" fill="#FFFFFF" width="1" height="8"/>
	<rect x="2" y="4" fill="#FFFFFF" width="11" height="1"/>
</g>
</svg>
