<?xml version="1.0" encoding="utf-8"?>
<!-- Generator: Adobe Illustrator 17.0.0, SVG Export Plug-In . SVG Version: 6.00 Build 0)  -->
<!DOCTYPE svg PUBLIC "-//W3C//DTD SVG 1.1//EN" "http://www.w3.org/Graphics/SVG/1.1/DTD/svg11.dtd">
<svg version="1.1" xmlns="http://www.w3.org/2000/svg" xmlns:xlink="http://www.w3.org/1999/xlink" x="0px" y="0px" width="1100px"
	 height="800px" viewBox="0 0 1100 800" enable-background="new 0 0 1100 800" xml:space="preserve">
<g id="grid" display="none">
	<g id="Layer_1_2_" display="inline">
		<g id="Layer_1_1_">
			
				<image overflow="visible" enable-background="new    " width="1100" height="800" xlink:href="grid.png"  transform="matrix(1 0 0 1 -8436 -8196)">
			</image>
		</g>
		<g id="Layer_2">
		</g>
		<image overflow="visible" enable-background="new    " width="1100" height="800" xlink:href="grid.png" >
		</image>
	</g>
</g>
<g id="Layer_2_2_" display="none">
	
		<image display="inline" overflow="visible" width="1100" height="787" xlink:href="wireframe_home.png"  transform="matrix(1 0 0 1 -9 0)">
	</image>
</g>
<g id="Layer_6">
</g>
<g id="footer">
	
		<rect x="41.5" y="718.5" fill="#F7F8F8" stroke="#CCCCCC" stroke-width="0.5" stroke-miterlimit="10" width="963.776" height="72"/>
</g>
<g id="boxes">
	
		<rect x="41.5" y="358.5" fill="#F7F8F8" stroke="#CCCCCC" stroke-width="0.5" stroke-miterlimit="10" width="227.776" height="162"/>
	
		<rect x="287.5" y="358.5" fill="#F7F8F8" stroke="#CCCCCC" stroke-width="0.5" stroke-miterlimit="10" width="227.776" height="162"/>
	
		<rect x="533.5" y="358.5" fill="#F7F8F8" stroke="#CCCCCC" stroke-width="0.5" stroke-miterlimit="10" width="227.776" height="162"/>
	
		<rect x="778.5" y="358.5" fill="#F7F8F8" stroke="#CCCCCC" stroke-width="0.5" stroke-miterlimit="10" width="227.776" height="162"/>
	
		<rect x="41.5" y="538.5" fill="#F7F8F8" stroke="#CCCCCC" stroke-width="0.5" stroke-miterlimit="10" width="227.776" height="162"/>
	
		<rect x="287.5" y="538.5" fill="#F7F8F8" stroke="#CCCCCC" stroke-width="0.5" stroke-miterlimit="10" width="227.776" height="162"/>
	
		<rect x="533.5" y="538.5" fill="#F7F8F8" stroke="#CCCCCC" stroke-width="0.5" stroke-miterlimit="10" width="227.776" height="162"/>
	
		<rect x="778.5" y="538.5" fill="#F7F8F8" stroke="#CCCCCC" stroke-width="0.5" stroke-miterlimit="10" width="227.776" height="162"/>
</g>
<g id="main_1_">
	<rect x="41.5" y="88.5" fill="#F7F8F8" stroke="#CCCCCC" stroke-width="0.5" stroke-miterlimit="10" width="965" height="253"/>
	<g id="main">
		<rect x="60.5" y="99.5" fill="#FFFFFF" stroke="#CCCCCC" stroke-width="0.5" stroke-miterlimit="10" width="390" height="229"/>
		<rect x="471.5" y="127.5" fill="none" width="546" height="109"/>
		<text transform="matrix(1 0 0 1 471.5 141.1797)"><tspan x="0" y="0" fill="#5D5E5E" font-family="'OpenSans-Bold'" font-size="18">Welcome to the Innovation Station.</tspan><tspan x="318.349" y="0" fill="#5D5E5E" font-family="'OpenSans-Light'" font-size="18"> A placerat vel habitasse </tspan><tspan x="0" y="30" fill="#5D5E5E" font-family="'OpenSans-Light'" font-size="18">scelerisque ac auctor parturient, tristique auctor ac tortor integer, </tspan><tspan x="0" y="60" fill="#5D5E5E" font-family="'OpenSans-Light'" font-size="18">dapibus elementum purus, aenean ridiculus, nascetur ac mauris.</tspan></text>
		<g id="learn_more_btn">
			<rect x="679.5" y="243.5" fill="#B1B1B0" width="120" height="35"/>
			<text transform="matrix(1 0 0 1 690.5 266.5)" fill="#FFFFFF" font-family="'OpenSans'" font-size="18">Learn more</text>
		</g>
	</g>
	<g id="signin">
		
			<rect x="368.5" y="16.5" fill="#F7F8F8" stroke="#CCCCCC" stroke-width="0.5" stroke-miterlimit="10" width="637.333" height="55"/>
		<rect x="957" y="30" fill="#B1B1B0" width="38" height="29"/>
		<rect x="692" y="30" fill="#FFFFFF" stroke="#CCCCCC" stroke-width="0.25" stroke-miterlimit="10" width="123" height="29"/>
		<rect x="824" y="30" fill="#FFFFFF" stroke="#CCCCCC" stroke-width="0.25" stroke-miterlimit="10" width="123" height="29"/>
		<text transform="matrix(1 0 0 1 627.5 51.5)" fill="#5D5E5E" font-family="'OpenSans-Light'" font-size="18">Sign in:</text>
		<text transform="matrix(1 0 0 1 703.5 49.5273)" fill="#B4B4B5" font-family="'OpenSans-Light'" font-size="14">Username</text>
		<text transform="matrix(1 0 0 1 832.5 49.5273)" fill="#B4B4B5" font-family="'OpenSans-Light'" font-size="14">Password</text>
		<text transform="matrix(1 0 0 1 966.5 49.5)" fill="#FFFFFF" font-family="'OpenSans'" font-size="14">Go</text>
	</g>
	<g id="banner">
		<rect x="41.5" y="16.5" fill="#F7F8F8" stroke="#CCCCCC" stroke-width="0.5" stroke-miterlimit="10" width="309" height="55"/>
		<text transform="matrix(1 0 0 1 56.5 51.5)" fill="#5D5E5E" font-family="'OpenSans-Light'" font-size="18">The Innovation Station</text>
	</g>
</g>
</svg>
